<?xml version="1.0" standalone="no"?>
<svg xmlns="http://www.w3.org/2000/svg" viewBox="0 0 108.127 52.282" width="108.127" height="52.282"><rect fill="#000000" width="108.127" height="52.282" x="0" y="0"></rect><path fill="white" fill-rule="nonzero" d="M13.08 27.92L0.16 27.92Q0 27.92 0 27.72L0 27.72L0.04 0.28Q0.04 0.08 0.24 0.08L0.24 0.08L4.68 0.08Q4.88 0.08 4.88 0.28L4.88 0.28L4.84 23L13.08 23Q13.28 23 13.28 23.20L13.28 23.20L13.28 27.72Q13.28 27.92 13.08 27.92L13.08 27.92ZM22.44 28.32L22.44 28.32Q20.32 28.32 18.52 27.22Q16.72 26.12 15.66 24.28Q14.60 22.44 14.60 20.24L14.60 20.24L14.68 0.24Q14.68 0.08 14.84 0.08L14.84 0.08L19.32 0.08Q19.48 0.08 19.48 0.24L19.48 0.24L19.48 20.24Q19.48 21.60 20.34 22.54Q21.20 23.48 22.44 23.48L22.44 23.48Q23.72 23.48 24.58 22.54Q25.44 21.60 25.44 20.24L25.44 20.24L25.44 0.24Q25.44 0.08 25.60 0.08L25.60 0.08L30.08 0.08Q30.24 0.08 30.24 0.24L30.24 0.24L30.32 20.24Q30.32 22.48 29.26 24.32Q28.20 26.16 26.42 27.24Q24.64 28.32 22.44 28.32ZM40.84 27.88L33.68 27.92Q33.48 27.92 33.48 27.72L33.48 27.72L33.56 0.24Q33.56 0.08 33.72 0.08L33.72 0.08L41.20 0.04Q43.40 0 45.22 1.08Q47.04 2.16 48.12 3.98Q49.20 5.80 49.20 8L49.20 8L49.20 19.48Q49.20 21.80 48.08 23.70Q46.96 25.60 45.08 26.72Q43.20 27.84 40.84 27.88L40.84 27.88ZM38.40 4.88L38.36 23L40.84 23Q42.32 23 43.34 21.96Q44.36 20.92 44.36 19.48L44.36 19.48L44.36 7.96Q44.36 6.68 43.42 5.74Q42.48 4.80 41.20 4.84L41.20 4.84L38.40 4.88ZM65.44 27.92L52.52 27.92Q52.36 27.92 52.36 27.72L52.36 27.72L52.40 0.24Q52.40 0.08 52.56 0.08L52.56 0.08L65.40 0.08Q65.56 0.08 65.56 0.28L65.56 0.28L65.56 4.76Q65.56 4.92 65.40 4.92L65.40 4.92L57.20 4.92L57.20 11.16L65.40 11.16Q65.56 11.16 65.56 11.32L65.56 11.32L65.60 15.84Q65.60 16 65.44 16L65.44 16L57.20 16L57.20 23L65.44 23Q65.60 23 65.60 23.20L65.60 23.20L65.60 27.76Q65.60 27.92 65.44 27.92L65.44 27.92ZM78.48 27.92L73.64 27.92Q73.48 27.92 73.44 27.72L73.44 27.72L67.92 0.24Q67.88 0.08 68.08 0.08L68.08 0.08L72.60 0.08Q72.76 0.08 72.80 0.24L72.80 0.24L76.08 18.56L79.28 0.24Q79.32 0.08 79.48 0.08L79.48 0.08L83.96 0.08Q84.16 0.08 84.12 0.24L84.12 0.24L78.68 27.72Q78.64 27.92 78.48 27.92L78.48 27.92Z" transform="translate(12 12) scale(1)"></path></svg>